<svg width="20" height="20" viewBox="0 0 20 20" fill="none" xmlns="http://www.w3.org/2000/svg">
<g id="Group">
<path id="Vector" d="M19 17.8947H1C0.734784 17.8947 0.48043 18.0056 0.292893 18.203C0.105357 18.4005 0 18.6682 0 18.9474C0 19.2265 0.105357 19.4943 0.292893 19.6917C0.48043 19.8891 0.734784 20 1 20H19C19.2652 20 19.5196 19.8891 19.7071 19.6917C19.8946 19.4943 20 19.2265 20 18.9474C20 18.6682 19.8946 18.4005 19.7071 18.203C19.5196 18.0056 19.2652 17.8947 19 17.8947ZM10 0C9.73478 0 9.48043 0.110902 9.29289 0.308309C9.10536 0.505715 9 0.773456 9 1.05263V12.2L5.71 8.72632C5.5217 8.5281 5.2663 8.41675 5 8.41675C4.7337 8.41675 4.4783 8.5281 4.29 8.72632C4.1017 8.92453 3.99591 9.19337 3.99591 9.47368C3.99591 9.754 4.1017 10.0228 4.29 10.2211L9.29 15.4842C9.38296 15.5829 9.49356 15.6612 9.61542 15.7146C9.73728 15.7681 9.86799 15.7956 10 15.7956C10.132 15.7956 10.2627 15.7681 10.3846 15.7146C10.5064 15.6612 10.617 15.5829 10.71 15.4842L15.71 10.2211C15.8032 10.1229 15.8772 10.0064 15.9277 9.87816C15.9781 9.74992 16.0041 9.61248 16.0041 9.47368C16.0041 9.33489 15.9781 9.19744 15.9277 9.06921C15.8772 8.94098 15.8032 8.82446 15.71 8.72632C15.6168 8.62817 15.5061 8.55032 15.3842 8.4972C15.2624 8.44408 15.1319 8.41675 15 8.41675C14.8681 8.41675 14.7376 8.44408 14.6158 8.4972C14.4939 8.55032 14.3832 8.62817 14.29 8.72632L11 12.2V1.05263C11 0.773456 10.8946 0.505715 10.7071 0.308309C10.5196 0.110902 10.2652 0 10 0Z" fill="white"/>
</g>
</svg>
