<svg width="22" height="24" viewBox="0 0 22 24" fill="none" xmlns="http://www.w3.org/2000/svg">
<path d="M0.6875 4.87835H11.1549C11.4704 6.31433 12.7527 7.39237 14.2821 7.39237C15.8114 7.39237 17.0938 6.31437 17.4093 4.87835H21.3125C21.6922 4.87835 22 4.57052 22 4.19085C22 3.81118 21.6922 3.50335 21.3125 3.50335H17.4089C17.0928 2.06811 15.8087 0.98938 14.2821 0.98938C12.7546 0.98938 11.4711 2.06794 11.1552 3.50335H0.6875C0.307828 3.50335 0 3.81118 0 4.19085C0 4.57052 0.307828 4.87835 0.6875 4.87835ZM12.4557 4.19266L12.4557 4.18527C12.4587 3.18122 13.278 2.36442 14.2821 2.36442C15.2848 2.36442 16.1041 3.1801 16.1084 4.18368L16.1086 4.19377C16.107 5.19954 15.2882 6.01741 14.2821 6.01741C13.2764 6.01741 12.4579 5.20036 12.4556 4.19519L12.4557 4.19266ZM21.3125 19.1217H17.4089C17.0928 17.6865 15.8087 16.6077 14.2821 16.6077C12.7546 16.6077 11.4711 17.6863 11.1552 19.1217H0.6875C0.307828 19.1217 0 19.4295 0 19.8092C0 20.1889 0.307828 20.4967 0.6875 20.4967H11.1549C11.4704 21.9326 12.7527 23.0107 14.2821 23.0107C15.8114 23.0107 17.0938 21.9326 17.4093 20.4967H21.3125C21.6922 20.4967 22 20.1889 22 19.8092C22 19.4295 21.6922 19.1217 21.3125 19.1217ZM14.2821 21.6357C13.2764 21.6357 12.4579 20.8186 12.4556 19.8135L12.4557 19.811L12.4557 19.8036C12.4587 18.7995 13.278 17.9827 14.2821 17.9827C15.2848 17.9827 16.1041 18.7984 16.1084 19.8019L16.1086 19.812C16.1071 20.8179 15.2883 21.6357 14.2821 21.6357ZM21.3125 11.3125H10.8451C10.5296 9.87656 9.24726 8.79856 7.71792 8.79856C6.18857 8.79856 4.90621 9.87656 4.59074 11.3125H0.6875C0.307828 11.3125 0 11.6204 0 12C0 12.3798 0.307828 12.6875 0.6875 12.6875H4.59108C4.9072 14.1227 6.19128 15.2015 7.71792 15.2015C9.24537 15.2015 10.5289 14.1229 10.8448 12.6875H21.3125C21.6922 12.6875 22 12.3798 22 12C22 11.6204 21.6922 11.3125 21.3125 11.3125ZM9.54435 11.9982L9.5443 12.0056C9.5413 13.0097 8.72201 13.8265 7.71792 13.8265C6.71524 13.8265 5.89591 13.0108 5.89157 12.0073L5.89145 11.9972C5.89295 10.9913 6.71172 10.1736 7.71792 10.1736C8.72364 10.1736 9.54211 10.9906 9.54439 11.9958L9.54435 11.9982Z" fill="#494DBB"/>
</svg>
