<svg width="1800" height="430" viewBox="0 0 1800 430" fill="none" xmlns="http://www.w3.org/2000/svg">
<path d="M420.71 275.02V393.07H369.49V112.96H420.71V230.21C421.91 230.21 423.1 230.19 424.3 230.15C466.09 228.68 503.11 202.83 514.41 162.57C522.44 133.96 522.92 112.96 522.92 112.96H578.14C578.14 112.96 571.86 162.43 559.14 193.03C545.97 224.72 514.35 248.62 514.35 248.62C514.35 248.62 539.76 265.86 552.28 285.43C576.84 323.85 577.39 393.08 577.39 393.08H529.78C529.78 393.08 532.11 343.82 509.89 302.11C495.14 274.44 452.08 275.03 420.73 275.03L420.71 275.02Z" fill="white"/>
<path d="M827.95 123.76C846.62 133.63 861.09 148.24 871.37 167.58C881.64 186.93 886.78 210.33 886.78 237.81V393.07H834.76V318.43H689.1V393.07H637.88V237.81C637.88 210.34 643.01 186.93 653.29 167.58C663.56 148.24 678.03 133.64 696.71 123.76C715.38 113.89 737.26 108.95 762.34 108.95C787.42 108.95 809.29 113.89 827.97 123.76H827.95ZM834.75 277.42V233C834.75 207.13 831.65 191.88 819.66 177.93C804.57 160.37 784.86 154.57 761.92 154.57C738.98 154.57 719.23 159.82 704.68 179.02C693.58 193.69 689.09 207.12 689.09 233V277.42H834.75Z" fill="white"/>
<path d="M1192.96 234.89V393.07H1141.74V229.61C1141.74 189.5 1109.22 156.98 1069.11 156.98C1029 156.98 996.48 189.5 996.48 229.61V393.07H945.26V234.89C945.26 167.55 999.85 112.96 1067.19 112.96H1071.03C1138.37 112.96 1192.96 167.55 1192.96 234.89Z" fill="white"/>
<path d="M1461.46 123.56C1479.6 133.3 1496.23 150.75 1506.24 169.42C1516.24 188.1 1518.69 207.53 1518.69 234.2V393.06H1466.27V240.56C1466.45 200.02 1460.2 186.25 1448.06 173.58C1435.92 160.91 1419.18 154.57 1397.84 154.57C1376.5 154.57 1359.29 160.91 1347.02 173.58C1334.75 186.25 1328.61 201.67 1328.61 240.56V393.06H1243.78L1243.38 351.08H1276.59V234.2C1276.59 207.53 1280 186.3 1290 167.5C1300 148.69 1315.73 132.96 1334.01 123.36C1352.28 113.76 1373.56 108.95 1397.83 108.95C1422.1 108.95 1443.31 113.82 1461.45 123.56H1461.46Z" fill="white"/>
<path d="M1800 213.78V393.07H1748.78V315.04H1673.95L1621.93 393.07H1567.11L1627.13 306.64C1607.65 299.44 1592.65 288.03 1582.11 272.43C1571.57 256.82 1566.3 237.95 1566.3 215.81C1566.3 193.67 1571.1 176.06 1580.7 160.59C1590.3 145.12 1603.91 133.32 1621.52 125.18C1639.13 117.04 1659.8 112.97 1683.54 112.97H1699.17C1754.85 112.97 1799.99 158.11 1799.99 213.79L1800 213.78ZM1636.13 171.78C1624.79 181.65 1619.12 196.06 1619.12 215C1619.12 233.94 1624.59 247.61 1635.53 257.62C1646.47 267.62 1662.34 272.63 1683.15 272.63H1748.78V211.97C1748.78 181.6 1724.16 156.98 1693.79 156.98H1685.15C1663.8 156.98 1647.47 161.92 1636.13 171.79V171.78Z" fill="white"/>
<path d="M267.55 250.67V215H249.72V179.33H231.88V143.65H214.04V107.98H196.21V72.3H178.37V36.63H160.53V0.959991H124.86V36.63H107.02V72.3H89.18V107.98H71.35V143.65H53.51V179.33H35.67V215H17.84V250.67H0V286.35V322.02H17.84V357.7H35.67V393.37H71.35H89.18V429.04H124.86H160.53H196.21V393.37H214.04H249.72V357.7H267.55V322.02H285.39V286.35V250.67H267.55Z" fill="url(#paint0_linear_1_74)"/>
<path d="M160.53 0.959991H124.86V36.63H160.53V0.959991Z" fill="#286AE2"/>
<path d="M142.69 36.63H107.02V72.3H142.69V36.63Z" fill="#1960E0"/>
<path d="M124.85 72.3H89.18V107.97H124.85V72.3Z" fill="#1960E0"/>
<path d="M107.02 107.98H71.35V143.65H107.02V107.98Z" fill="#1E5EDC"/>
<path d="M89.18 143.65H53.51V179.32H89.18V143.65Z" fill="#2B59D3"/>
<path d="M124.85 143.65H89.18V179.32H124.85V143.65Z" fill="#494DBB"/>
<path d="M160.53 143.65H124.86V179.32H160.53V143.65Z" fill="#3052CE"/>
<path d="M196.2 143.65H160.53V179.32H196.2V143.65Z" fill="#2B59D3"/>
<path d="M231.88 143.65H196.21V179.32H231.88V143.65Z" fill="#3052CE"/>
<path d="M124.85 393.37H89.18V429.04H124.85V393.37Z" fill="#F70847"/>
<path d="M160.53 393.37H124.86V429.04H160.53V393.37Z" fill="#FF0000"/>
<path d="M196.2 393.37H160.53V429.04H196.2V393.37Z" fill="#ED063C"/>
<path d="M249.71 179.33H214.04V215H249.71V179.33Z" fill="#494DBB"/>
<path d="M214.04 179.33H178.37V215H214.04V179.33Z" fill="#713B9D"/>
<path d="M178.37 179.33H142.7V215H178.37V179.33Z" fill="#1E5EDC"/>
<path d="M142.69 179.33H107.02V215H142.69V179.33Z" fill="#494DBB"/>
<path d="M107.02 179.33H71.35V215H107.02V179.33Z" fill="#8C3B9B"/>
<path d="M71.34 179.33H35.67V215H71.34V179.33Z" fill="#494DBB"/>
<path d="M249.71 357.7H214.04V393.37H249.71V357.7Z" fill="#ED063C"/>
<path d="M214.04 357.7H178.37V393.37H214.04V357.7Z" fill="#F70847"/>
<path d="M178.37 357.7H142.7V393.37H178.37V357.7Z" fill="#C01A5C"/>
<path d="M142.69 357.7H107.02V393.37H142.69V357.7Z" fill="#FF296B"/>
<path d="M107.02 357.7H71.35V393.37H107.02V357.7Z" fill="#ED063C"/>
<path d="M71.34 357.7H35.67V393.37H71.34V357.7Z" fill="#F70847"/>
<path d="M53.51 215H17.84V250.67H53.51V215Z" fill="#8C3B9B"/>
<path d="M35.67 250.67H0V286.34H35.67V250.67Z" fill="#713B9D"/>
<path d="M35.67 286.35H0V322.02H35.67V286.35Z" fill="#9F2977"/>
<path d="M71.34 286.35H35.67V322.02H71.34V286.35Z" fill="#C01A5C"/>
<path d="M107.02 286.35H71.35V322.02H107.02V286.35Z" fill="#F70847"/>
<path d="M142.69 286.35H107.02V322.02H142.69V286.35Z" fill="#8C3B9B"/>
<path d="M178.37 286.35H142.7V322.02H178.37V286.35Z" fill="#713B9D"/>
<path d="M214.04 286.35H178.37V322.02H214.04V286.35Z" fill="#ED063C"/>
<path d="M249.71 286.35H214.04V322.02H249.71V286.35Z" fill="#9F2977"/>
<path d="M285.39 286.35H249.72V322.02H285.39V286.35Z" fill="#ED063C"/>
<path d="M71.34 250.67H35.67V286.34H71.34V250.67Z" fill="#494DBB"/>
<path d="M107.02 250.67H71.35V286.34H107.02V250.67Z" fill="#9F2977"/>
<path d="M142.69 250.67H107.02V286.34H142.69V250.67Z" fill="#494DBB"/>
<path d="M178.37 250.67H142.7V286.34H178.37V250.67Z" fill="#C01A5C"/>
<path d="M214.04 250.67H178.37V286.34H214.04V250.67Z" fill="#494DBB"/>
<path d="M249.71 250.67H214.04V286.34H249.71V250.67Z" fill="#C01A5C"/>
<path d="M285.39 250.67H249.72V286.34H285.39V250.67Z" fill="#8C3B9B"/>
<path d="M89.18 215H53.51V250.67H89.18V215Z" fill="#494DBB"/>
<path d="M124.85 215H89.18V250.67H124.85V215Z" fill="#2B59D3"/>
<path d="M160.53 215H124.86V250.67H160.53V215Z" fill="#713B9D"/>
<path d="M196.2 215H160.53V250.67H196.2V215Z" fill="#494DBB"/>
<path d="M231.88 215H196.21V250.67H231.88V215Z" fill="#8C3B9B"/>
<path d="M267.55 215H231.88V250.67H267.55V215Z" fill="#9F2977"/>
<path d="M53.51 322.02H17.84V357.69H53.51V322.02Z" fill="#ED063C"/>
<path d="M89.18 322.02H53.51V357.69H89.18V322.02Z" fill="#C01A5C"/>
<path d="M124.85 322.02H89.18V357.69H124.85V322.02Z" fill="#9F2977"/>
<path d="M160.53 322.02H124.86V357.69H160.53V322.02Z" fill="#C01A5C"/>
<path d="M196.2 322.02H160.53V357.69H196.2V322.02Z" fill="#9F2977"/>
<path d="M231.88 322.02H196.21V357.69H231.88V322.02Z" fill="#F70847"/>
<path d="M267.55 322.02H231.88V357.69H267.55V322.02Z" fill="#C01A5C"/>
<path d="M142.69 107.98H107.02V143.65H142.69V107.98Z" fill="#2B59D3"/>
<path d="M178.37 107.98H142.7V143.65H178.37V107.98Z" fill="#0C6DE2"/>
<path d="M214.04 107.98H178.37V143.65H214.04V107.98Z" fill="#1E5EDC"/>
<path d="M160.53 72.3H124.86V107.97H160.53V72.3Z" fill="#0C6DE2"/>
<path d="M196.2 72.3H160.53V107.97H196.2V72.3Z" fill="#1E5EDC"/>
<path d="M178.37 36.63H142.7V72.3H178.37V36.63Z" fill="#286AE2"/>
<defs>
<linearGradient id="paint0_linear_1_74" x1="142.7" y1="0.959991" x2="142.7" y2="429.04" gradientUnits="userSpaceOnUse">
<stop stop-color="#1960E0"/>
<stop offset="1" stop-color="#ED063C"/>
</linearGradient>
</defs>
</svg>
