<svg width="22" height="22" viewBox="0 0 22 22" fill="none" xmlns="http://www.w3.org/2000/svg">
<g id="Group">
<g id="Vector">
<mask id="path-1-inside-1_30_950" fill="white">
<path d="M21.7913 20.8031L16.1112 15.2138C17.5986 13.5978 18.5126 11.4606 18.5126 9.10875C18.5118 4.07781 14.368 0 9.25592 0C4.14384 0 0 4.07781 0 9.10875C0 14.1397 4.14384 18.2175 9.25592 18.2175C11.4647 18.2175 13.4905 17.4535 15.0818 16.1834L20.7839 21.7947C21.0617 22.0684 21.5128 22.0684 21.7906 21.7947C21.8567 21.7302 21.9092 21.6531 21.9451 21.568C21.981 21.4828 21.9995 21.3914 21.9996 21.299C21.9996 21.2067 21.9812 21.1152 21.9454 21.0301C21.9097 20.9449 21.8573 20.8677 21.7913 20.8031ZM9.25592 16.8161C4.93054 16.8161 1.42415 13.3654 1.42415 9.10875C1.42415 4.85211 4.93054 1.40143 9.25592 1.40143C13.5813 1.40143 17.0877 4.85211 17.0877 9.10875C17.0877 13.3654 13.5813 16.8161 9.25592 16.8161Z"/>
</mask>
<path d="M21.7913 20.8031L16.1112 15.2138C17.5986 13.5978 18.5126 11.4606 18.5126 9.10875C18.5118 4.07781 14.368 0 9.25592 0C4.14384 0 0 4.07781 0 9.10875C0 14.1397 4.14384 18.2175 9.25592 18.2175C11.4647 18.2175 13.4905 17.4535 15.0818 16.1834L20.7839 21.7947C21.0617 22.0684 21.5128 22.0684 21.7906 21.7947C21.8567 21.7302 21.9092 21.6531 21.9451 21.568C21.981 21.4828 21.9995 21.3914 21.9996 21.299C21.9996 21.2067 21.9812 21.1152 21.9454 21.0301C21.9097 20.9449 21.8573 20.8677 21.7913 20.8031ZM9.25592 16.8161C4.93054 16.8161 1.42415 13.3654 1.42415 9.10875C1.42415 4.85211 4.93054 1.40143 9.25592 1.40143C13.5813 1.40143 17.0877 4.85211 17.0877 9.10875C17.0877 13.3654 13.5813 16.8161 9.25592 16.8161Z" fill="white"/>
<path d="M21.7913 20.8031L18.9857 23.6542L18.9928 23.6612L21.7913 20.8031ZM16.1112 15.2138L13.1681 12.5049L10.5481 15.3515L13.3057 18.0649L16.1112 15.2138ZM18.5126 9.10875H22.5126V9.10818L18.5126 9.10875ZM15.0818 16.1834L17.8874 13.3324L15.359 10.8442L12.5865 13.0571L15.0818 16.1834ZM20.7839 21.7947L23.591 18.9452L23.5895 18.9437L20.7839 21.7947ZM21.7906 21.7947L18.9959 18.933L18.9896 18.9391L18.9835 18.9452L21.7906 21.7947ZM24.5968 17.952L18.9168 12.3627L13.3057 18.0649L18.9857 23.6542L24.5968 17.952ZM19.0543 17.9227C21.1804 15.6128 22.5126 12.5231 22.5126 9.10875H14.5126C14.5126 10.3981 14.0169 11.5828 13.1681 12.5049L19.0543 17.9227ZM22.5126 9.10818C22.5115 1.80842 16.5165 -4 9.25592 -4V4C12.2195 4 14.5122 6.3472 14.5126 9.10932L22.5126 9.10818ZM9.25592 -4C1.99543 -4 -4 1.80843 -4 9.10875H4C4 6.34719 6.29225 4 9.25592 4V-4ZM-4 9.10875C-4 16.4091 1.99543 22.2175 9.25592 22.2175V14.2175C6.29225 14.2175 4 11.8703 4 9.10875H-4ZM9.25592 22.2175C12.4024 22.2175 15.3017 21.1258 17.5771 19.3096L12.5865 13.0571C11.6793 13.7812 10.527 14.2175 9.25592 14.2175V22.2175ZM12.2761 19.0344L17.9782 24.6457L23.5895 18.9437L17.8874 13.3324L12.2761 19.0344ZM17.9767 24.6443C19.8117 26.4519 22.7628 26.4519 24.5978 24.6443L18.9835 18.9452C20.2627 17.6849 22.3118 17.6849 23.591 18.9452L17.9767 24.6443ZM24.5854 24.6564C25.0326 24.2196 25.3881 23.6978 25.631 23.1217L18.2592 20.0142C18.4303 19.6083 18.6807 19.2407 18.9959 18.933L24.5854 24.6564ZM25.631 23.1217C25.8738 22.5457 25.9991 21.9269 25.9996 21.3017L17.9996 21.2964C17.9998 20.856 18.0881 20.42 18.2592 20.0142L25.631 23.1217ZM25.9996 21.3017C26 20.6765 25.8755 20.0575 25.6334 19.4811L18.2575 22.579C18.087 22.1729 17.9993 21.7369 17.9996 21.2964L25.9996 21.3017ZM25.6334 19.4811C25.3913 18.9047 25.0364 18.3824 24.5897 17.945L18.9928 23.6612C18.6781 23.353 18.4281 22.9851 18.2575 22.579L25.6334 19.4811ZM9.25592 12.8161C7.07904 12.8161 5.42415 11.0961 5.42415 9.10875H-2.57585C-2.57585 15.6347 2.78205 20.8161 9.25592 20.8161V12.8161ZM5.42415 9.10875C5.42415 7.12141 7.07904 5.40143 9.25592 5.40143V-2.59857C2.78205 -2.59857 -2.57585 2.58281 -2.57585 9.10875H5.42415ZM9.25592 5.40143C11.4328 5.40143 13.0877 7.1214 13.0877 9.10875H21.0877C21.0877 2.58282 15.7298 -2.59857 9.25592 -2.59857V5.40143ZM13.0877 9.10875C13.0877 11.0961 11.4328 12.8161 9.25592 12.8161V20.8161C15.7298 20.8161 21.0877 15.6347 21.0877 9.10875H13.0877Z" fill="white" mask="url(#path-1-inside-1_30_950)"/>
</g>
</g>
</svg>
